<?xml version="1.0" encoding="utf-8"?>
<svg xmlns="http://www.w3.org/2000/svg" viewBox="0 0 500 500">
  <g id="svg2" transform="matrix(1, 0, 0, 1, -39.291882, 178.756485)">
    <title id="title5270">Queue</title>
    <path d="M 396.435 107.7 L 481.536 107.7 C 480.606 108.84 479.676 109.836 478.746 110.689 C 477.815 111.544 476.978 112.257 476.234 112.827 L 475.397 113.965 L 301.569 284.864 C 298.221 288.282 294.129 289.991 289.292 289.991 C 284.456 289.991 280.364 288.282 277.015 284.864 L 102.908 113.396 C 101.978 113.015 100.025 111.116 97.049 107.699 L 200.007 107.699 C 204.099 107.699 207.772 106.417 211.028 103.854 C 214.283 101.29 216.376 98.015 217.306 94.027 L 236.837 13.99 L 289.85 203.972 C 290.966 207.77 293.105 210.903 296.268 213.372 C 299.43 215.84 303.057 217.074 307.149 217.074 C 311.056 217.074 314.59 215.84 317.752 213.372 C 320.914 210.903 323.053 207.77 324.169 203.972 L 364.906 65.829 L 380.531 97.73 C 383.879 104.376 389.181 107.699 396.435 107.699 L 396.435 107.7 Z M 539.292 -14.208 C 539.292 13.326 529.713 41.809 510.553 71.242 L 407.596 71.242 L 376.625 8.294 C 375.137 5.066 372.765 2.502 369.51 0.603 C 366.255 -1.296 362.86 -2.055 359.326 -1.675 C 350.955 -0.726 345.747 3.641 343.701 11.428 L 307.707 133.905 L 253.02 -61.489 C 251.904 -65.287 249.718 -68.42 246.463 -70.889 C 243.208 -73.357 239.534 -74.592 235.442 -74.592 C 231.35 -74.592 227.722 -73.31 224.56 -70.746 C 221.398 -68.183 219.352 -64.907 218.422 -60.92 L 186.056 71.242 L 68.031 71.242 C 48.872 41.809 39.292 13.326 39.292 -14.208 C 39.292 -55.983 51.104 -88.644 74.727 -112.19 C 98.351 -135.73 130.996 -147.5 172.663 -147.5 C 184.195 -147.5 195.961 -145.46 207.959 -141.38 C 219.956 -137.3 231.117 -131.79 241.441 -124.86 C 251.764 -117.93 260.646 -111.43 268.087 -105.35 C 275.527 -99.27 282.596 -92.824 289.292 -85.985 C 295.989 -92.824 303.057 -99.27 310.498 -105.35 C 317.938 -111.43 326.82 -117.93 337.144 -124.86 C 347.467 -131.79 358.628 -137.3 370.626 -141.38 C 382.624 -145.46 394.389 -147.5 405.922 -147.5 C 447.588 -147.5 480.233 -135.73 503.857 -112.19 C 527.48 -88.644 539.292 -55.983 539.292 -14.208 Z" id="path6012" style="fill: rgb(235, 195, 71);"/>
  </g>
</svg>